<?xml version="1.0" encoding="UTF-8"?>
<!--Generator: Apple Native CoreSVG 232.5-->
<!DOCTYPE svg
PUBLIC "-//W3C//DTD SVG 1.1//EN"
       "http://www.w3.org/Graphics/SVG/1.1/DTD/svg11.dtd">
<svg version="1.1" xmlns="http://www.w3.org/2000/svg" xmlns:xlink="http://www.w3.org/1999/xlink" width="23.8618" height="23.5184">
 <g>
  <rect height="23.5184" opacity="0" width="23.8618" x="0" y="0"/>
  <path d="M11.7533 23.5066C18.1979 23.5066 23.5103 18.1862 23.5103 11.7533C23.5103 5.31234 18.1898 0 11.7452 0C5.31234 0 0 5.31234 0 11.7533C0 18.1862 5.32043 23.5066 11.7533 23.5066ZM11.7533 21.9867C6.08403 21.9867 1.52801 17.4226 1.52801 11.7533C1.52801 6.08403 6.07594 1.51629 11.7452 1.51629C17.4145 1.51629 21.9904 6.08403 21.9904 11.7533C21.9904 17.4226 17.4226 21.9867 11.7533 21.9867Z" fill="#ffffff" fill-opacity="0.85"/>
  <path d="M10.4824 17.3197C10.7783 17.3197 11.0265 17.1758 11.21 16.9034L16.8997 8.00895C16.9959 7.8327 17.1083 7.63301 17.1083 7.44059C17.1083 7.04039 16.7449 6.76594 16.369 6.76594C16.1414 6.76594 15.9138 6.91711 15.7384 7.16977L10.4464 15.5521L7.74188 12.2223C7.52965 11.9418 7.32996 11.8662 7.0745 11.8662C6.69047 11.8662 6.37559 12.1782 6.37559 12.5776C6.37559 12.7809 6.45926 12.9725 6.59063 13.148L9.72246 16.9034C9.94641 17.1956 10.1793 17.3197 10.4824 17.3197Z" fill="#ffffff" fill-opacity="0.85"/>
 </g>
</svg>
