<?xml version="1.0" encoding="UTF-8"?>
<!--Generator: Apple Native CoreSVG 232.5-->
<!DOCTYPE svg
PUBLIC "-//W3C//DTD SVG 1.1//EN"
       "http://www.w3.org/Graphics/SVG/1.1/DTD/svg11.dtd">
<svg version="1.1" xmlns="http://www.w3.org/2000/svg" xmlns:xlink="http://www.w3.org/1999/xlink" width="15.5878" height="4.33899">
 <g>
  <rect height="4.33899" opacity="0" width="15.5878" x="0" y="0"/>
  <path d="M0.412032 1.2361L6.65473 3.70811C6.95549 3.82544 7.31628 3.96976 7.61098 3.96976C7.90234 3.96976 8.26919 3.82544 8.56996 3.70811L14.8066 1.2361C15.0616 1.13423 15.2186 0.908967 15.2186 0.673683C15.2186 0.291358 14.9388 0 14.5543 0C14.3615 0 14.0999 0.11127 13.9346 0.171299L7.16133 2.8604L8.05729 2.8604L1.28127 0.171299C1.11876 0.11127 0.860452 0 0.661555 0C0.279845 0 0 0.291358 0 0.673683C0 0.908967 0.157061 1.13423 0.412032 1.2361Z" fill="#ffffff" fill-opacity="0.85"/>
 </g>
</svg>
