<svg width="32" height="32" viewBox="0 0 32 32" fill="none" xmlns="http://www.w3.org/2000/svg">
<path fill-rule="evenodd" clip-rule="evenodd" d="M16 0C16.8837 0 17.6 0.716344 17.6 1.6V16.9373L22.8686 11.6686C23.4935 11.0438 24.5065 11.0438 25.1314 11.6686C25.7562 12.2935 25.7562 13.3065 25.1314 13.9314L17.1314 21.9314C16.5065 22.5562 15.4935 22.5562 14.8686 21.9314L6.86863 13.9314C6.24379 13.3065 6.24379 12.2935 6.86863 11.6686C7.49347 11.0438 8.50653 11.0438 9.13137 11.6686L14.4 16.9373V1.6C14.4 0.716344 15.1163 0 16 0ZM1.6 19.2C2.48366 19.2 3.2 19.9163 3.2 20.8V22.72C3.2 24.0905 3.20125 25.0222 3.26008 25.7423C3.3174 26.4438 3.42128 26.8025 3.54878 27.0528C3.85558 27.6549 4.34511 28.1444 4.94723 28.4512C5.19747 28.5787 5.5562 28.6826 6.25766 28.7399C6.9778 28.7988 7.90947 28.8 9.28 28.8H22.72C24.0905 28.8 25.0222 28.7988 25.7423 28.7399C26.4438 28.6826 26.8025 28.5787 27.0528 28.4512C27.6549 28.1444 28.1444 27.6549 28.4512 27.0528C28.5787 26.8025 28.6826 26.4438 28.7399 25.7423C28.7988 25.0222 28.8 24.0905 28.8 22.72V20.8C28.8 19.9163 29.5163 19.2 30.4 19.2C31.2837 19.2 32 19.9163 32 20.8V22.7861C32 24.0741 32 25.137 31.9293 26.0029C31.8558 26.9023 31.6981 27.729 31.3024 28.5055C30.6889 29.7098 29.7098 30.6889 28.5055 31.3024C27.729 31.6981 26.9023 31.8558 26.0029 31.9293C25.137 32 24.0741 32 22.7861 32H9.21388C7.92595 32 6.86298 32 5.99708 31.9293C5.09772 31.8558 4.271 31.6981 3.49446 31.3024C2.29022 30.6889 1.31115 29.7098 0.69756 28.5055C0.301894 27.729 0.144192 26.9023 0.0707113 26.0029C-3.65019e-05 25.137 -1.97186e-05 24.074 6.90067e-07 22.7861L1.45301e-06 20.8C1.45301e-06 19.9163 0.716346 19.2 1.6 19.2Z" fill="white"/>
</svg>
