<svg width="34" height="34" viewBox="0 0 34 34" fill="none" xmlns="http://www.w3.org/2000/svg">
<g clip-path="url(#clip0_1299_525)">
<rect width="34" height="34" rx="6" fill="#9B9B9B"/>
<path d="M34 0H0V34H34V0Z" fill="url(#paint0_linear_1299_525)"/>
<path d="M27.3945 8.93392C27.3655 7.74433 27.2008 7.02024 27.1814 6.93619C27.0651 6.46423 26.6388 6.11511 26.1318 6.11511H16.3142C10.2202 6.11511 5.25977 11.0803 5.25977 17.1835C5.25977 22.6465 9.32567 27.3531 14.7189 28.1354C15.2453 28.213 15.7814 28.2518 16.3142 28.2518C22.4115 28.2518 27.3719 23.2866 27.3719 17.1835C27.3719 15.6318 27.0587 14.1384 26.4418 12.7387C27.049 11.604 27.4268 10.311 27.3945 8.93716V8.93392ZM16.3175 8.27771H25.1985C25.2211 8.49752 25.2373 8.71411 25.2373 8.93716C25.2373 12.1794 22.6182 14.8172 19.3855 14.8463C19.3661 14.8463 19.3499 14.8398 19.3306 14.8398L14.9966 14.8495C14.9708 14.8495 14.9482 14.856 14.9223 14.856C14.8707 14.8495 14.8158 14.8398 14.7609 14.8398C11.7187 14.8398 9.01241 16.5822 7.64311 19.1392C7.50102 18.5088 7.42351 17.8526 7.42351 17.1835C7.42351 12.2732 11.4151 8.27771 16.3207 8.27771H16.3175ZM8.91552 22.1002C9.31598 19.22 11.822 16.9992 14.7609 16.9992C14.7867 16.9992 14.8125 16.9927 14.8384 16.9927C14.89 16.9992 14.9449 17.0089 14.9998 17.0089H15.6554V26.0633C15.4455 26.0472 15.2388 26.0246 15.0321 25.9955C12.4712 25.6237 10.2816 24.1497 8.91875 22.1002H8.91552ZM17.8095 25.9599V17.0024H19.2466C19.2757 17.0024 19.3015 17.0089 19.3273 17.0089C21.4782 17.0089 23.4352 16.1587 24.882 14.7784C25.0984 15.5542 25.2114 16.3559 25.2114 17.1802C25.2114 21.5798 22.0046 25.2455 17.8095 25.9567V25.9599Z" fill="white"/>
</g>
<defs>
<linearGradient id="paint0_linear_1299_525" x1="12.0172" y1="-2.93103" x2="24.3276" y2="44.8448" gradientUnits="userSpaceOnUse">
<stop stop-color="#20A2FF"/>
<stop offset="1" stop-color="#0075FF"/>
</linearGradient>
<clipPath id="clip0_1299_525">
<rect width="34" height="34" rx="6" fill="white"/>
</clipPath>
</defs>
</svg>
