<svg width="96" height="96" viewBox="0 0 96 96" fill="none" xmlns="http://www.w3.org/2000/svg">
<path fill-rule="evenodd" clip-rule="evenodd" d="M20 16.5C18.067 16.5 16.5 18.067 16.5 20C16.5 21.933 18.067 23.5 20 23.5L76 23.5C82.9036 23.5 88.5 29.0964 88.5 36V76C88.5 82.9036 82.9036 88.5 76 88.5H20C13.0964 88.5 7.5 82.9036 7.5 76V20C7.5 13.0964 13.0964 7.5 20 7.5H68C70.4853 7.5 72.5 9.51472 72.5 12C72.5 14.4853 70.4853 16.5 68 16.5H20ZM16.5 32.0034V76C16.5 77.933 18.067 79.5 20 79.5H76C77.933 79.5 79.5 77.933 79.5 76V36C79.5 34.067 77.933 32.5 76 32.5L20 32.5C18.7851 32.5 17.6106 32.3267 16.5 32.0034ZM59.5 56C59.5 52.4102 62.4101 49.5 66 49.5C69.5899 49.5 72.5 52.4102 72.5 56C72.5 59.5899 69.5899 62.5 66 62.5C62.4101 62.5 59.5 59.5899 59.5 56Z" fill="#1DA3FF"/>
</svg>
