<svg width="683" height="1239" viewBox="0 0 683 1239" fill="none" xmlns="http://www.w3.org/2000/svg">
<g opacity="0.15" filter="url(#filter0_f_378_11)">
<path fill-rule="evenodd" clip-rule="evenodd" d="M244.053 540.743C242.952 541.844 243.46 543.716 244.962 544.09L305.703 559.246L265.626 519.17L244.053 540.743ZM276.98 507.817L317.66 548.498L303.097 485.993C302.743 484.472 300.854 483.943 299.743 485.054L276.98 507.817ZM240.972 559.608C227.455 556.235 222.882 539.392 232.792 529.482L288.481 473.793C298.48 463.794 315.483 468.553 318.673 482.244L338.873 568.943C340.573 576.238 333.911 582.798 326.645 580.985L240.972 559.608Z" fill="#1DA3FF" fill-opacity="0.7"/>
<path fill-rule="evenodd" clip-rule="evenodd" d="M138.843 814.706C137.751 814.397 136.742 815.387 137.038 816.475L149.026 860.5L160.244 820.744L138.843 814.706ZM171.507 823.922L160.119 864.278L194.685 832.762C195.526 831.995 195.19 830.605 194.088 830.294L171.507 823.922ZM125.749 819.463C123.081 809.666 132.165 800.76 141.996 803.534L197.24 819.123C207.159 821.922 210.186 834.429 202.614 841.332L154.669 885.048C150.635 888.726 144.092 886.826 142.658 881.559L125.749 819.463Z" fill="#1DA3FF"/>
<path fill-rule="evenodd" clip-rule="evenodd" d="M260.719 163.152C259.822 162.637 258.711 163.288 258.732 164.316L259.575 205.885L278.297 173.23L260.719 163.152ZM287.548 178.533L268.544 211.681L306.077 191.481C306.991 190.989 307.001 189.686 306.096 189.167L287.548 178.533ZM248.092 164.456C247.904 155.206 257.905 149.346 265.98 153.976L311.357 179.991C319.504 184.662 319.409 196.388 311.187 200.813L259.126 228.832C254.745 231.19 249.383 228.06 249.282 223.087L248.092 164.456Z" fill="#1DA3FF" fill-opacity="0.5"/>
<path fill-rule="evenodd" clip-rule="evenodd" d="M549.923 746.581C549.088 746.102 548.054 746.708 548.073 747.664L548.859 786.344L566.279 755.958L549.923 746.581ZM574.887 760.893L557.204 791.737L592.128 772.941C592.978 772.483 592.988 771.271 592.146 770.788L574.887 760.893ZM538.173 747.794C537.998 739.187 547.304 733.735 554.818 738.042L597.041 762.25C604.622 766.596 604.533 777.507 596.884 781.624L548.44 807.696C544.364 809.89 539.374 806.978 539.28 802.35L538.173 747.794Z" fill="#1DA3FF" fill-opacity="0.2"/>
<path fill-rule="evenodd" clip-rule="evenodd" d="M492.467 134.599C491.617 134.521 491.006 135.391 491.375 136.155L506.281 167.062L509.119 136.126L492.467 134.599ZM517.883 136.93L515.002 168.332L536.234 140.285C536.751 139.602 536.312 138.621 535.454 138.542L517.883 136.93ZM483.438 139.913C480.12 133.035 485.614 125.204 493.264 125.906L536.251 129.849C543.97 130.557 547.924 139.39 543.274 145.533L513.823 184.438C511.345 187.711 506.246 187.204 504.463 183.506L483.438 139.913Z" fill="#1DA3FF" fill-opacity="0.4"/>
<path fill-rule="evenodd" clip-rule="evenodd" d="M60.3244 211.853C59.2032 212.277 58.9675 213.751 59.9029 214.489L97.7332 244.35L82.2922 203.541L60.3244 211.853ZM93.8533 199.167L109.527 240.592L119.09 192.117C119.322 190.937 118.164 189.968 117.033 190.396L93.8533 199.167ZM52.1914 224.116C43.7729 217.471 45.8942 204.204 55.9856 200.385L112.694 178.929C122.876 175.076 133.302 183.798 131.207 194.416L117.943 261.654C116.827 267.312 110.076 269.807 105.55 266.234L52.1914 224.116Z" fill="#1DA3FF" fill-opacity="0.8"/>
<path fill-rule="evenodd" clip-rule="evenodd" d="M-91.1887 415.58C-94.8739 415.58 -97.1551 419.55 -95.2691 422.682L-18.9902 549.319V415.58H-91.1887ZM19.0059 415.58V551.337L99.2288 422.744C101.181 419.615 98.9049 415.58 95.1867 415.58H19.0059ZM-127.912 441.915C-144.886 413.734 -124.355 378 -91.1887 378H95.1867C128.65 378 149.137 414.311 131.565 442.478L20.2892 620.846C10.9262 635.854 -11.1966 635.684 -20.3225 620.534L-127.912 441.915Z" fill="#1DA3FF"/>
</g>
<g opacity="0.35" filter="url(#filter1_f_378_11)">
<circle cx="-51" cy="505" r="725.5" stroke="#1DA3FF"/>
<circle cx="-51.0002" cy="505" r="495.26" stroke="#1DA3FF"/>
<circle cx="-51.0002" cy="505" r="268.733" stroke="#1DA3FF"/>
</g>
<defs>
<filter id="filter0_f_378_11" x="-142" y="117.862" width="752.674" height="777.093" filterUnits="userSpaceOnUse" color-interpolation-filters="sRGB">
<feFlood flood-opacity="0" result="BackgroundImageFix"/>
<feBlend mode="normal" in="SourceGraphic" in2="BackgroundImageFix" result="shape"/>
<feGaussianBlur stdDeviation="4" result="effect1_foregroundBlur_378_11"/>
</filter>
<filter id="filter1_f_378_11" x="-785" y="-229" width="1468" height="1468" filterUnits="userSpaceOnUse" color-interpolation-filters="sRGB">
<feFlood flood-opacity="0" result="BackgroundImageFix"/>
<feBlend mode="normal" in="SourceGraphic" in2="BackgroundImageFix" result="shape"/>
<feGaussianBlur stdDeviation="4" result="effect1_foregroundBlur_378_11"/>
</filter>
</defs>
</svg>
