<svg width="32" height="32" viewBox="0 0 32 32" fill="none" xmlns="http://www.w3.org/2000/svg">
<path d="M15.7833 0.25H31.0739C31.3444 0.25 31.5617 0.457675 31.5811 0.728135C31.5955 0.955128 31.6052 1.18695 31.6052 1.41877C31.6052 6.95838 27.2827 11.5079 21.83 11.8701C21.6272 11.8846 18.8211 11.8894 18.8211 11.8894H16.3484C16.3484 11.8894 12.248 11.8991 11.8664 11.9329C7.04646 12.3289 2.81569 15.1784 0.526434 19.2547C0.478137 19.3416 0.347737 19.3223 0.328418 19.2257C0.111084 18.1921 2.46936e-06 17.1296 2.46936e-06 16.0429C-0.00482718 7.33026 7.07543 0.25 15.7833 0.25Z" fill="#20A2FF"/>
<path d="M2.72346 24.8666C2.67516 24.7942 2.65584 24.7024 2.6655 24.6155C3.38512 19.8921 7.30679 16.2023 12.0447 15.7579C12.3634 15.729 14.3436 15.7241 14.3436 15.7241C14.4836 15.7241 14.5947 15.8352 14.5947 15.9753V31.4446C14.5947 31.6233 14.4402 31.7634 14.2663 31.7489C14.0055 31.7247 13.7495 31.6958 13.4936 31.6571C8.99717 31.0051 5.14794 28.4406 2.72346 24.8666Z" fill="#1287F1"/>
<path d="M18.4307 31.2466V16.0187C18.4307 15.8496 18.5659 15.7144 18.7349 15.7144H20.9807C21.029 15.7144 21.0773 15.7241 21.1256 15.7241C24.7913 15.7241 28.1334 14.338 30.669 12.0632C30.8139 11.9328 31.0457 12.0004 31.094 12.1888C31.4079 13.4348 31.5673 14.7195 31.5673 16.0332C31.5673 23.7123 26.0518 30.1261 18.7736 31.5315C18.5997 31.5653 18.4307 31.4252 18.4307 31.2466Z" fill="#C2DDFA"/>
</svg>
